<?xml version="1.0" encoding="UTF-8" standalone="no"?>
<svg
   xmlns:dc="http://purl.org/dc/elements/1.1/"
   xmlns:cc="http://creativecommons.org/ns#"
   xmlns:rdf="http://www.w3.org/1999/02/22-rdf-syntax-ns#"
   xmlns:svg="http://www.w3.org/2000/svg"
   xmlns="http://www.w3.org/2000/svg"
   xmlns:sodipodi="http://sodipodi.sourceforge.net/DTD/sodipodi-0.dtd"
   xmlns:inkscape="http://www.inkscape.org/namespaces/inkscape"
   sodipodi:docname="iconogrande.svg"
   inkscape:version="1.0 (4035a4fb49, 2020-05-01)"
   inkscape:export-ydpi="96.109085"
   inkscape:export-xdpi="96.109085"
   inkscape:export-filename="C:\Users\ASUS\Documents\tesis\icono.png"
   id="svg8"
   version="1.1"
   viewBox="0 0 185.20833 185.20833"
   height="700"
   width="700">
  <defs
     id="defs2" />
  <sodipodi:namedview
     inkscape:window-maximized="1"
     inkscape:window-y="-8"
     inkscape:window-x="-8"
     inkscape:window-height="705"
     inkscape:window-width="1366"
     units="px"
     showgrid="false"
     inkscape:document-rotation="0"
     inkscape:current-layer="layer1"
     inkscape:document-units="mm"
     inkscape:cy="406.69607"
     inkscape:cx="364.61509"
     inkscape:zoom="0.70710678"
     inkscape:pageshadow="2"
     inkscape:pageopacity="0.0"
     borderopacity="1.0"
     bordercolor="#666666"
     pagecolor="#ffffff"
     id="base" />
  <metadata
     id="metadata5">
    <rdf:RDF>
      <cc:Work
         rdf:about="">
        <dc:format>image/svg+xml</dc:format>
        <dc:type
           rdf:resource="http://purl.org/dc/dcmitype/StillImage" />
        <dc:title />
      </cc:Work>
    </rdf:RDF>
  </metadata>
  <g
     id="layer1"
     inkscape:groupmode="layer"
     inkscape:label="Capa 1">
    <path
       d="M 91.739212,0.61983437 A 91.959504,91.844054 0 0 0 0.54828693,92.461749 91.959504,91.844054 0 0 0 92.509924,184.30366 91.959504,91.844054 0 0 0 184.47156,92.461749 91.959504,91.844054 0 0 0 92.509924,0.61983437 a 91.959504,91.844054 0 0 0 -0.770712,0 z M 143.27963,26.711797 c -7.21401,20.099287 16.90063,52.51122 -6.67451,87.831223 -11.41006,17.06386 -29.48392,45.29176 -97.69334,42.27691 48.428664,-9.4157 40.911694,-113.839616 104.36785,-130.108133 z"
       style="fill:#4eee94;stroke-width:5.02122;fill-opacity:1"
       id="path10" />
    <path
       d="M 113.84503,61.700619 C 114.22109,58.900704 107.84779,102.79634 99.530733,127.07644 110.52556,98.005715 112.74106,68.384747 113.84503,61.700619 Z M 99.530733,127.07644 c -0.880955,2.3293 -1.822868,4.64877 -2.820948,6.95885 -5.175353,5.02449 -11.148684,9.53254 -18.003232,13.19938 16.974635,-21.26006 17.170482,-40.90698 13.985055,-32.108 -5.197779,14.78396 -2.618706,8.23834 -14.276878,32.26514 -0.603588,0.31951 -1.215772,0.6293 -1.833243,0.93533 0.568399,-0.23412 1.128602,-0.40601 1.698557,-0.65848 -0.09094,0.18754 -0.05697,0.11552 -0.149646,0.3068 0.09589,-0.11758 0.174505,-0.2342 0.269364,-0.3517 14.656874,-6.5254 29.719498,-19.31825 40.772898,-46.25768 l 16.77608,-17.150209 c 3.01262,-2.680851 -12.43669,11.425635 -16.73866,17.067899 0.88245,-2.154585 1.73023,-4.409638 2.55906,-6.749338 C 116.84,107.30708 109.086,121.95367 96.866914,133.87815 c 0.903667,-2.02874 1.796998,-4.27119 2.663819,-6.80172 z M 121.76914,94.534441 c 6.79339,-17.603382 8.17337,-31.578671 7.84181,-29.429221 -2.1661,11.202754 -4.82813,20.921898 -7.84181,29.429221 z M 76.581487,148.32714 c -14.935657,6.15203 -29.249644,6.2119 -38.198874,8.49279 15.042832,-0.004 27.62763,-3.25362 38.198874,-8.49279 z m 57.331973,-43.63128 c 2.91496,-2.30977 -28.69591,23.29845 -38.273694,31.83863 z"
       style="opacity:1;fill:#4eee94;fill-opacity:1;stroke:#4eee94;stroke-width:4.22453px;stroke-linecap:butt;stroke-linejoin:miter;stroke-opacity:1"
       id="path36" />
  </g>
</svg>
