<?xml version="1.0" encoding="UTF-8" standalone="no"?>
<svg
   xmlns:dc="http://purl.org/dc/elements/1.1/"
   xmlns:cc="http://creativecommons.org/ns#"
   xmlns:rdf="http://www.w3.org/1999/02/22-rdf-syntax-ns#"
   xmlns:svg="http://www.w3.org/2000/svg"
   xmlns="http://www.w3.org/2000/svg"
   xmlns:sodipodi="http://sodipodi.sourceforge.net/DTD/sodipodi-0.dtd"
   xmlns:inkscape="http://www.inkscape.org/namespaces/inkscape"
   sodipodi:docname="instrucciones.svg"
   inkscape:version="1.0 (4035a4fb49, 2020-05-01)"
   id="svg8"
   version="1.1"
   viewBox="0 0 185.20833 185.20834"
   height="700"
   width="700">
  <defs
     id="defs2" />
  <sodipodi:namedview
     inkscape:pagecheckerboard="false"
     inkscape:window-maximized="0"
     inkscape:window-y="0"
     inkscape:window-x="78"
     inkscape:window-height="728"
     inkscape:window-width="1260"
     units="px"
     showgrid="false"
     inkscape:document-rotation="0"
     inkscape:current-layer="layer1"
     inkscape:document-units="mm"
     inkscape:cy="205.33975"
     inkscape:cx="134.51617"
     inkscape:zoom="0.5"
     inkscape:pageshadow="2"
     inkscape:pageopacity="0.90980392"
     borderopacity="1.0"
     bordercolor="#666666"
     pagecolor="#1fa3fa"
     id="base" />
  <metadata
     id="metadata5">
    <rdf:RDF>
      <cc:Work
         rdf:about="">
        <dc:format>image/svg+xml</dc:format>
        <dc:type
           rdf:resource="http://purl.org/dc/dcmitype/StillImage" />
        <dc:title></dc:title>
      </cc:Work>
    </rdf:RDF>
  </metadata>
  <g
     id="layer1"
     inkscape:groupmode="layer"
     inkscape:label="Capa 1">
    <path
       id="path1041"
       d="m 69.607253,25.743816 c -6.76433,0.005 -13.205064,1.731154 -19.496195,3.501266 -5.026375,1.414253 -9.918517,2.845678 -14.798206,3.700233 v 0.0018 c -7.890038,1.442424 -13.883968,2.008522 -18.392833,2.801437 -3.21368,0.565148 -5.66226,1.248065 -7.5149232,2.433218 v 91.23563 l 3.3203772,1.12905 c 14.849589,5.04668 28.228504,0.70888 39.747558,-2.52077 6.202563,-1.73903 11.929212,-3.16872 17.188093,-3.1723 0.542115,-5.5e-4 1.082864,0.014 1.619539,0.0441 3.618539,0.20244 7.035773,1.08501 10.581622,3.11608 l 6.95222,3.98249 V 31.61357 l -2.502521,-1.450061 c -4.83454,-2.803242 -9.787909,-4.091379 -14.596438,-4.361327 -0.705471,-0.03961 -1.408317,-0.05889 -2.108293,-0.05838 z"
       style="color:#000000;font-style:normal;font-variant:normal;font-weight:normal;font-stretch:normal;font-size:medium;line-height:normal;font-family:sans-serif;font-variant-ligatures:normal;font-variant-position:normal;font-variant-caps:normal;font-variant-numeric:normal;font-variant-alternates:normal;font-variant-east-asian:normal;font-feature-settings:normal;font-variation-settings:normal;text-indent:0;text-align:start;text-decoration:none;text-decoration-line:none;text-decoration-style:solid;text-decoration-color:#000000;letter-spacing:normal;word-spacing:normal;text-transform:none;writing-mode:lr-tb;direction:ltr;text-orientation:mixed;dominant-baseline:auto;baseline-shift:baseline;text-anchor:start;white-space:normal;shape-padding:0;shape-margin:0;inline-size:0;clip-rule:nonzero;display:inline;overflow:visible;visibility:visible;opacity:0.907104;isolation:auto;mix-blend-mode:normal;color-interpolation:sRGB;color-interpolation-filters:linearRGB;solid-color:#000000;solid-opacity:1;vector-effect:none;fill:none;fill-opacity:0.957377;fill-rule:evenodd;stroke:#ffffff;stroke-width:9.8642;stroke-linecap:butt;stroke-linejoin:miter;stroke-miterlimit:4;stroke-dasharray:none;stroke-dashoffset:0;stroke-opacity:1;color-rendering:auto;image-rendering:auto;shape-rendering:auto;text-rendering:auto;enable-background:accumulate;stop-color:#000000;stop-opacity:1" />
    <path
       d="m 23.67505,56.41088 c 9.673725,0.393202 18.811063,-2.206506 27.634202,-4.497935 6.579874,-1.708835 12.987155,-3.245435 19.318119,-3.249713 v 0 c 0.654927,-4.5e-4 1.309284,0.01555 1.962681,0.04941 0.577667,0.02993 1.154794,0.07385 1.731478,0.132813"
       style="font-variation-settings:normal;opacity:0.915923;vector-effect:none;fill:#00aa00;fill-opacity:1;fill-rule:evenodd;stroke:#ffffff;stroke-width:7.3;stroke-linecap:butt;stroke-linejoin:miter;stroke-miterlimit:4;stroke-dasharray:none;stroke-dashoffset:0;stroke-opacity:1;stop-color:#000000;stop-opacity:1"
       id="path859-5" />
    <path
       id="path859-5-4"
       style="font-variation-settings:normal;opacity:0.915923;vector-effect:none;fill:#0000ff;fill-opacity:1;fill-rule:evenodd;stroke:#ffffff;stroke-width:7.3;stroke-linecap:butt;stroke-linejoin:miter;stroke-miterlimit:4;stroke-dasharray:none;stroke-dashoffset:0;stroke-opacity:1;stop-color:#000000;stop-opacity:1"
       d="m 23.675086,74.211231 c 9.673715,0.393202 18.811053,-2.206506 27.634192,-4.497935 6.579874,-1.708835 12.987155,-3.245435 19.318119,-3.249713 v 0 c 0.654927,-5.29e-4 1.309284,0.01556 1.962681,0.04941 0.577667,0.02993 1.154794,0.07386 1.731478,0.132813" />
    <path
       id="path859-5-3"
       style="font-variation-settings:normal;opacity:0.915923;vector-effect:none;fill:#00aa00;fill-opacity:1;fill-rule:evenodd;stroke:#ffffff;stroke-width:7.3;stroke-linecap:butt;stroke-linejoin:miter;stroke-miterlimit:4;stroke-dasharray:none;stroke-dashoffset:0;stroke-opacity:1;stop-color:#000000;stop-opacity:1"
       d="m 23.675086,92.011582 c 9.673715,0.393202 18.811053,-2.206506 27.634192,-4.497935 6.579874,-1.708835 12.987155,-3.245435 19.318119,-3.249713 v 0 c 0.654927,-5.29e-4 1.309284,0.01556 1.962681,0.04941 0.577667,0.02993 1.154794,0.07386 1.731478,0.132813" />
    <path
       id="path859-5-1"
       style="font-variation-settings:normal;opacity:0.915923;vector-effect:none;fill:#00aa00;fill-opacity:1;fill-rule:evenodd;stroke:#ffffff;stroke-width:7.3;stroke-linecap:butt;stroke-linejoin:miter;stroke-miterlimit:4;stroke-dasharray:none;stroke-dashoffset:0;stroke-opacity:1;stop-color:#000000;stop-opacity:1"
       d="m 23.675184,109.81197 c 9.673715,0.3932 18.811063,-2.20652 27.634202,-4.49797 6.579874,-1.70884 12.987155,-3.24545 19.318119,-3.24973 v 0 c 0.654927,-5.3e-4 1.309284,0.0156 1.962681,0.0494 0.577667,0.0299 1.154794,0.0739 1.731478,0.13282" />
    <path
       id="path859-5-9"
       style="font-variation-settings:normal;opacity:0.915923;vector-effect:none;fill:#00aa00;fill-opacity:1;fill-rule:evenodd;stroke:#ffffff;stroke-width:7.30001;stroke-linecap:butt;stroke-linejoin:miter;stroke-miterlimit:4;stroke-dasharray:none;stroke-dashoffset:0;stroke-opacity:1;stop-color:#000000;stop-opacity:1"
       d="m 163.53064,56.398129 c -9.67377,0.393203 -18.81115,-2.206505 -27.63434,-4.497935 -6.57991,-1.708832 -12.98722,-3.245434 -19.31823,-3.249712 v 0 c -0.65493,-4.49e-4 -1.30929,0.01555 -1.96269,0.04941 -0.57767,0.02993 -1.1548,0.07385 -1.73149,0.132813" />
    <path
       d="m 163.5306,74.198414 c -9.67375,0.3932 -18.81113,-2.206506 -27.63432,-4.497936 -6.57991,-1.708835 -12.98724,-3.245434 -19.31824,-3.249713 v 0 c -0.65493,-5.29e-4 -1.30929,0.01556 -1.96269,0.04941 -0.57767,0.02993 -1.1548,0.07386 -1.73149,0.132813"
       style="font-variation-settings:normal;opacity:0.915923;vector-effect:none;fill:#0000ff;fill-opacity:1;fill-rule:evenodd;stroke:#ffffff;stroke-width:7.30001;stroke-linecap:butt;stroke-linejoin:miter;stroke-miterlimit:4;stroke-dasharray:none;stroke-dashoffset:0;stroke-opacity:1;stop-color:#000000;stop-opacity:1"
       id="path859-5-4-7" />
    <path
       d="m 163.53061,91.998687 c -9.67375,0.393203 -18.81113,-2.206505 -27.63432,-4.497935 -6.57991,-1.708835 -12.98724,-3.245434 -19.31824,-3.249713 v 0 c -0.65493,-5.29e-4 -1.30929,0.01556 -1.96269,0.04941 -0.57767,0.02993 -1.1548,0.07386 -1.73149,0.132815"
       style="font-variation-settings:normal;opacity:0.915923;vector-effect:none;fill:#00aa00;fill-opacity:1;fill-rule:evenodd;stroke:#ffffff;stroke-width:7.30001;stroke-linecap:butt;stroke-linejoin:miter;stroke-miterlimit:4;stroke-dasharray:none;stroke-dashoffset:0;stroke-opacity:1;stop-color:#000000;stop-opacity:1"
       id="path859-5-3-8" />
    <path
       d="m 163.53051,109.79902 c -9.67375,0.3932 -18.81114,-2.20652 -27.63434,-4.49797 -6.5799,-1.70884 -12.98722,-3.24545 -19.31823,-3.24973 v 0 c -0.65493,-5.3e-4 -1.30929,0.0156 -1.96269,0.0494 -0.57767,0.0299 -1.1548,0.0739 -1.73149,0.13282"
       style="font-variation-settings:normal;opacity:0.915923;vector-effect:none;fill:#00aa00;fill-opacity:1;fill-rule:evenodd;stroke:#ffffff;stroke-width:7.30001;stroke-linecap:butt;stroke-linejoin:miter;stroke-miterlimit:4;stroke-dasharray:none;stroke-dashoffset:0;stroke-opacity:1;stop-color:#000000;stop-opacity:1"
       id="path859-5-1-6" />
    <path
       style="color:#000000;font-style:normal;font-variant:normal;font-weight:normal;font-stretch:normal;font-size:medium;line-height:normal;font-family:sans-serif;font-variant-ligatures:normal;font-variant-position:normal;font-variant-caps:normal;font-variant-numeric:normal;font-variant-alternates:normal;font-variant-east-asian:normal;font-feature-settings:normal;font-variation-settings:normal;text-indent:0;text-align:start;text-decoration:none;text-decoration-line:none;text-decoration-style:solid;text-decoration-color:#000000;letter-spacing:normal;word-spacing:normal;text-transform:none;writing-mode:lr-tb;direction:ltr;text-orientation:mixed;dominant-baseline:auto;baseline-shift:baseline;text-anchor:start;white-space:normal;shape-padding:0;shape-margin:0;inline-size:0;clip-rule:nonzero;display:inline;overflow:visible;visibility:visible;opacity:0.907104;isolation:auto;mix-blend-mode:normal;color-interpolation:sRGB;color-interpolation-filters:linearRGB;solid-color:#000000;solid-opacity:1;vector-effect:none;fill:none;fill-opacity:0.957377;fill-rule:evenodd;stroke:#ffffff;stroke-width:9.8642;stroke-linecap:butt;stroke-linejoin:miter;stroke-miterlimit:4;stroke-dasharray:none;stroke-dashoffset:0;stroke-opacity:1;color-rendering:auto;image-rendering:auto;shape-rendering:auto;text-rendering:auto;enable-background:accumulate;stop-color:#000000;stop-opacity:1"
       d="m 117.5983,25.361384 c 6.76433,0.005 13.20507,1.731154 19.4962,3.501266 5.02638,1.414253 9.91852,2.845678 14.79821,3.700233 v 0.0018 c 7.89004,1.442425 13.88397,2.008523 18.39283,2.801438 3.21368,0.565148 5.66226,1.248065 7.51492,2.433218 v 91.235631 l -3.32037,1.12905 c -14.84959,5.04668 -28.22851,0.70888 -39.74756,-2.52077 -6.20256,-1.73903 -11.92922,-3.16872 -17.1881,-3.1723 -0.54211,-5.3e-4 -1.08286,0.014 -1.61954,0.0441 -3.61854,0.20244 -7.03577,1.08501 -10.58162,3.11608 l -6.952227,3.98249 V 31.231138 l 2.502527,-1.450061 c 4.83454,-2.803242 9.78791,-4.091379 14.59644,-4.361327 0.70547,-0.03961 1.40831,-0.05889 2.10829,-0.05838 z"
       id="path1041-8" />
  </g>
</svg>
