<?xml version="1.0" encoding="UTF-8" standalone="no"?>
<svg
   xmlns:dc="http://purl.org/dc/elements/1.1/"
   xmlns:cc="http://creativecommons.org/ns#"
   xmlns:rdf="http://www.w3.org/1999/02/22-rdf-syntax-ns#"
   xmlns:svg="http://www.w3.org/2000/svg"
   xmlns="http://www.w3.org/2000/svg"
   xmlns:sodipodi="http://sodipodi.sourceforge.net/DTD/sodipodi-0.dtd"
   xmlns:inkscape="http://www.inkscape.org/namespaces/inkscape"
   sodipodi:docname="start.svg"
   inkscape:version="1.0 (4035a4fb49, 2020-05-01)"
   id="svg2328"
   version="1.1"
   viewBox="0 0 105.83333 105.83334"
   height="400"
   width="400">
  <defs
     id="defs2322">
    <filter
       height="1.0049137"
       y="-0.00245685"
       width="1.0059833"
       x="-0.0029916593"
       id="filter3521"
       style="color-interpolation-filters:sRGB"
       inkscape:collect="always">
      <feGaussianBlur
         id="feGaussianBlur3523"
         stdDeviation="0.092423279"
         inkscape:collect="always" />
    </filter>
  </defs>
  <sodipodi:namedview
     inkscape:window-maximized="0"
     inkscape:window-y="0"
     inkscape:window-x="26"
     inkscape:window-height="728"
     inkscape:window-width="1260"
     inkscape:pagecheckerboard="false"
     inkscape:snap-page="true"
     units="px"
     showgrid="false"
     inkscape:document-rotation="0"
     inkscape:current-layer="layer1"
     inkscape:document-units="mm"
     inkscape:cy="326.09112"
     inkscape:cx="-227.74784"
     inkscape:zoom="0.5"
     inkscape:pageshadow="2"
     inkscape:pageopacity="0"
     borderopacity="1"
     bordercolor="#666666"
     pagecolor="#1ae580"
     id="base" />
  <metadata
     id="metadata2325">
    <rdf:RDF>
      <cc:Work
         rdf:about="">
        <dc:format>image/svg+xml</dc:format>
        <dc:type
           rdf:resource="http://purl.org/dc/dcmitype/StillImage" />
        <dc:title></dc:title>
      </cc:Work>
    </rdf:RDF>
  </metadata>
  <g
     id="layer1"
     inkscape:groupmode="layer"
     inkscape:label="Capa 1">
    <path
       d="M 52.816379,4.3982934 C 44.241178,9.3856676 38.478676,18.69821 38.478676,29.436733 V 46.154149 L 16.91361,72.185305 c -0.738274,0.895145 -1.135228,1.252839 -1.135228,1.74266 v 13.934474 h 26.879751 v 6.820517 H 63.046922 V 87.862439 H 89.92238 V 73.927965 c 0.02103,-0.102028 -0.387472,-0.638881 -1.727655,-2.140487 L 67.154086,46.38951 V 29.436733 c 0,-1.001164 -0.04948,-1.990179 -0.147034,-2.96456 -0.09756,-0.974381 -0.24277,-1.934013 -0.433139,-2.876838 -0.190371,-0.942823 -0.426096,-1.869027 -0.704544,-2.775527 -0.278451,-0.906499 -0.600042,-1.793373 -0.961849,-2.658775 -0.361806,-0.865401 -0.76403,-1.7089 -1.204457,-2.52843 -0.440422,-0.819531 -0.918661,-1.61499 -1.432974,-2.383878 -0.514314,-0.768887 -1.064544,-1.511028 -1.648013,-2.2245 C 60.038607,10.310752 59.421619,9.6259793 58.773729,8.9726936 58.12584,8.3194102 57.446721,7.6972855 56.739138,7.1089584 56.031559,6.5206317 55.295547,5.9658219 54.533009,5.4472244 53.979362,5.0706955 53.396844,4.7358915 52.816379,4.3982934 Z m 0.03493,18.3291116 a 6.8916671,6.6295533 0 0 1 0.12498,0.0012 6.8916671,6.6295533 0 0 1 0.124979,0.0031 6.8916671,6.6295533 0 0 1 0.124977,0.0056 6.8916671,6.6295533 0 0 1 0.124981,0.0075 6.8916671,6.6295533 0 0 1 0.124979,0.0099 6.8916671,6.6295533 0 0 1 0.124365,0.01236 6.8916671,6.6295533 0 0 1 0.123757,0.0142 6.8916671,6.6295533 0 0 1 0.124367,0.01605 6.8916671,6.6295533 0 0 1 0.123141,0.01854 6.8916671,6.6295533 0 0 1 0.123142,0.02038 6.8916671,6.6295533 0 0 1 0.123139,0.02285 6.8916671,6.6295533 0 0 1 0.12253,0.02533 6.8916671,6.6295533 0 0 1 0.121917,0.02656 6.8916671,6.6295533 0 0 1 0.121303,0.02966 6.8916671,6.6295533 0 0 1 0.120692,0.03089 6.8916671,6.6295533 0 0 1 0.120077,0.03335 6.8916671,6.6295533 0 0 1 0.119466,0.03583 6.8916671,6.6295533 0 0 1 0.118852,0.03768 6.8916671,6.6295533 0 0 1 0.118245,0.03953 6.8916671,6.6295533 0 0 1 0.117013,0.04139 6.8916671,6.6295533 0 0 1 0.116408,0.04386 6.8916671,6.6295533 0 0 1 0.115792,0.04572 6.8916671,6.6295533 0 0 1 0.114558,0.04756 6.8916671,6.6295533 0 0 1 0.113954,0.05004 6.8916671,6.6295533 0 0 1 0.112733,0.0519 6.8916671,6.6295533 0 0 1 0.112116,0.05374 6.8916671,6.6295533 0 0 1 0.110895,0.0556 6.8916671,6.6295533 0 0 1 0.109662,0.05745 6.8916671,6.6295533 0 0 1 0.109058,0.05931 6.8916671,6.6295533 0 0 1 0.107208,0.06178 6.8916671,6.6295533 0 0 1 0.106604,0.06301 6.8916671,6.6295533 0 0 1 0.105371,0.06486 6.8916671,6.6295533 0 0 1 0.103532,0.06734 6.8916671,6.6295533 0 0 1 0.102918,0.06857 6.8916671,6.6295533 0 0 1 0.10109,0.07042 6.8916671,6.6295533 0 0 1 0.100475,0.07228 6.8916671,6.6295533 0 0 1 0.09864,0.07412 6.8916671,6.6295533 0 0 1 0.0968,0.07536 6.8916671,6.6295533 0 0 1 0.09558,0.07783 6.8916671,6.6295533 0 0 1 0.09435,0.07908 6.8916671,6.6295533 0 0 1 0.09312,0.0803 6.8916671,6.6295533 0 0 1 0.09129,0.08216 6.8916671,6.6295533 0 0 1 0.08945,0.08401 6.8916671,6.6295533 0 0 1 0.08822,0.08526 6.8916671,6.6295533 0 0 1 0.08638,0.08709 6.8916671,6.6295533 0 0 1 0.08455,0.08834 6.8916671,6.6295533 0 0 1 0.08332,0.0902 6.8916671,6.6295533 0 0 1 0.08149,0.09143 6.8916671,6.6295533 0 0 1 0.07964,0.09267 6.8916671,6.6295533 0 0 1 0.0778,0.0939 6.8916671,6.6295533 0 0 1 0.07597,0.09575 6.8916671,6.6295533 0 0 1 0.07473,0.09637 6.8916671,6.6295533 0 0 1 0.0723,0.09821 6.8916671,6.6295533 0 0 1 0.07045,0.09946 6.8916671,6.6295533 0 0 1 0.06862,0.100068 6.8916671,6.6295533 0 0 1 0.06678,0.101933 6.8916671,6.6295533 0 0 1 0.06494,0.103163 6.8916671,6.6295533 0 0 1 0.0631,0.103786 6.8916671,6.6295533 0 0 1 0.06127,0.105017 6.8916671,6.6295533 0 0 1 0.05881,0.106248 6.8916671,6.6295533 0 0 1 0.05698,0.106869 6.8916671,6.6295533 0 0 1 0.05515,0.108102 6.8916671,6.6295533 0 0 1 0.05268,0.108722 6.8916671,6.6295533 0 0 1 0.05084,0.109965 6.8916671,6.6295533 0 0 1 0.0484,0.111197 6.8916671,6.6295533 0 0 1 0.04656,0.111198 6.8916671,6.6295533 0 0 1 0.04472,0.112427 6.8916671,6.6295533 0 0 1 0.04228,0.113673 6.8916671,6.6295533 0 0 1 0.04045,0.113659 6.8916671,6.6295533 0 0 1 0.03798,0.114281 6.8916671,6.6295533 0 0 1 0.03614,0.115512 6.8916671,6.6295533 0 0 1 0.03369,0.116134 6.8916671,6.6295533 0 0 1 0.03186,0.116134 6.8916671,6.6295533 0 0 1 0.02879,0.116756 6.8916671,6.6295533 0 0 1 0.02756,0.117365 6.8916671,6.6295533 0 0 1 0.0245,0.117987 6.8916671,6.6295533 0 0 1 0.02329,0.118609 6.8916671,6.6295533 0 0 1 0.02022,0.118608 6.8916671,6.6295533 0 0 1 0.01839,0.119219 6.8916671,6.6295533 0 0 1 0.01593,0.11923 6.8916671,6.6295533 0 0 1 0.01349,0.119218 6.8916671,6.6295533 0 0 1 0.01161,0.119845 6.8916671,6.6295533 0 0 1 0.0092,0.11984 6.8916671,6.6295533 0 0 1 0.0067,0.12046 6.8916671,6.6295533 0 0 1 0.0049,0.120461 6.8916671,6.6295533 0 0 1 0.0025,0.119843 6.8916671,6.6295533 0 0 1 0,0.06734 6.8916671,6.6295533 0 0 1 -0.0012,0.120461 6.8916671,6.6295533 0 0 1 -0.0031,0.119841 6.8916671,6.6295533 0 0 1 -0.0055,0.12046 6.8916671,6.6295533 0 0 1 -0.0079,0.119844 6.8916671,6.6295533 0 0 1 -0.01044,0.119844 6.8916671,6.6295533 0 0 1 -0.01226,0.119839 6.8916671,6.6295533 0 0 1 -0.0147,0.119845 6.8916671,6.6295533 0 0 1 -0.01716,0.119218 6.8916671,6.6295533 0 0 1 -0.01899,0.118609 6.8916671,6.6295533 0 0 1 -0.02145,0.118609 6.8916671,6.6295533 0 0 1 -0.02389,0.117986 6.8916671,6.6295533 0 0 1 -0.02572,0.117988 6.8916671,6.6295533 0 0 1 -0.02818,0.116755 6.8916671,6.6295533 0 0 1 -0.03063,0.116756 6.8916671,6.6295533 0 0 1 -0.03247,0.116134 6.8916671,6.6295533 0 0 1 -0.03493,0.115525 6.8916671,6.6295533 0 0 1 -0.03675,0.115512 6.8916671,6.6295533 0 0 1 -0.0386,0.114281 6.8916671,6.6295533 0 0 1 -0.04166,0.113049 6.8916671,6.6295533 0 0 1 -0.04288,0.113051 6.8916671,6.6295533 0 0 1 -0.04595,0.112428 6.8916671,6.6295533 0 0 1 -0.04718,0.111196 6.8916671,6.6295533 0 0 1 -0.04962,0.109955 6.8916671,6.6295533 0 0 1 -0.05208,0.109954 6.8916671,6.6295533 0 0 1 -0.05391,0.108722 6.8916671,6.6295533 0 0 1 -0.05575,0.107491 6.8916671,6.6295533 0 0 1 -0.05758,0.10626 6.8916671,6.6295533 0 0 1 -0.06004,0.105626 6.8916671,6.6295533 0 0 1 -0.06188,0.105017 6.8916671,6.6295533 0 0 1 -0.06371,0.103164 6.8916671,6.6295533 0 0 1 -0.06555,0.102543 6.8916671,6.6295533 0 0 1 -0.068,0.101311 6.8916671,6.6295533 0 0 1 -0.06923,0.100067 6.8916671,6.6295533 0 0 1 -0.07167,0.09823 6.8916671,6.6295533 0 0 1 -0.0729,0.09761 6.8916671,6.6295533 0 0 1 -0.07536,0.09636 6.8916671,6.6295533 0 0 1 -0.07719,0.09513 6.8916671,6.6295533 0 0 1 -0.07843,0.09328 6.8916671,6.6295533 0 0 1 -0.08026,0.09205 6.8916671,6.6295533 0 0 1 -0.08209,0.0908 6.8916671,6.6295533 0 0 1 -0.08394,0.08895 6.8916671,6.6295533 0 0 1 -0.08578,0.08772 6.8916671,6.6295533 0 0 1 -0.08699,0.08649 6.8916671,6.6295533 0 0 1 -0.08883,0.08463 6.8916671,6.6295533 0 0 1 -0.09067,0.0834 6.8916671,6.6295533 0 0 1 -0.09189,0.08154 6.8916671,6.6295533 0 0 1 -0.09312,0.07969 6.8916671,6.6295533 0 0 1 -0.09496,0.07846 6.8916671,6.6295533 0 0 1 -0.0968,0.07661 6.8916671,6.6295533 0 0 1 -0.09741,0.07475 6.8916671,6.6295533 0 0 1 -0.09924,0.07351 6.8916671,6.6295533 0 0 1 -0.100475,0.07165 6.8916671,6.6295533 0 0 1 -0.102311,0.06981 6.8916671,6.6295533 0 0 1 -0.102929,0.06795 6.8916671,6.6295533 0 0 1 -0.104766,0.06611 6.8916671,6.6295533 0 0 1 -0.105371,0.06424 6.8916671,6.6295533 0 0 1 -0.107208,0.06239 6.8916671,6.6295533 0 0 1 -0.107825,0.06053 6.8916671,6.6295533 0 0 1 -0.109662,0.05868 6.8916671,6.6295533 0 0 1 -0.110278,0.05621 6.8916671,6.6295533 0 0 1 -0.110884,0.05498 6.8916671,6.6295533 0 0 1 -0.112721,0.05313 6.8916671,6.6295533 0 0 1 -0.113338,0.05066 6.8916671,6.6295533 0 0 1 -0.113954,0.0488 6.8916671,6.6295533 0 0 1 -0.115174,0.04694 6.8916671,6.6295533 0 0 1 -0.116409,0.04509 6.8916671,6.6295533 0 0 1 -0.116396,0.04263 6.8916671,6.6295533 0 0 1 -0.117629,0.04078 6.8916671,6.6295533 0 0 1 -0.118854,0.03893 6.8916671,6.6295533 0 0 1 -0.118851,0.03645 6.8916671,6.6295533 0 0 1 -0.120077,0.0346 6.8916671,6.6295533 0 0 1 -0.120081,0.03274 6.8916671,6.6295533 0 0 1 -0.121303,0.03027 6.8916671,6.6295533 0 0 1 -0.121301,0.02779 6.8916671,6.6295533 0 0 1 -0.121918,0.02656 6.8916671,6.6295533 0 0 1 -0.122528,0.02348 6.8916671,6.6295533 0 0 1 -0.123142,0.02224 6.8916671,6.6295533 0 0 1 -0.123753,0.01977 6.8916671,6.6295533 0 0 1 -0.123754,0.0173 6.8916671,6.6295533 0 0 1 -0.123753,0.01544 6.8916671,6.6295533 0 0 1 -0.12437,0.01297 6.8916671,6.6295533 0 0 1 -0.124364,0.01112 6.8916671,6.6295533 0 0 1 -0.124982,0.0093 6.8916671,6.6295533 0 0 1 -0.124979,0.0062 6.8916671,6.6295533 0 0 1 -0.124977,0.0049 6.8916671,6.6295533 0 0 1 -0.124981,0.0019 6.8916671,6.6295533 0 0 1 -0.06983,6.19e-4 6.8916671,6.6295533 0 0 1 -0.12498,-0.0012 6.8916671,6.6295533 0 0 1 -0.124977,-0.0031 6.8916671,6.6295533 0 0 1 -0.124981,-0.0055 6.8916671,6.6295533 0 0 1 -0.124979,-0.0075 6.8916671,6.6295533 0 0 1 -0.124366,-0.0099 6.8916671,6.6295533 0 0 1 -0.124368,-0.01236 6.8916671,6.6295533 0 0 1 -0.124366,-0.01422 6.8916671,6.6295533 0 0 1 -0.123753,-0.01606 6.8916671,6.6295533 0 0 1 -0.123754,-0.01853 6.8916671,6.6295533 0 0 1 -0.123141,-0.02038 6.8916671,6.6295533 0 0 1 -0.122532,-0.02285 6.8916671,6.6295533 0 0 1 -0.122526,-0.02533 6.8916671,6.6295533 0 0 1 -0.121916,-0.02656 6.8916671,6.6295533 0 0 1 -0.121304,-0.02966 6.8916671,6.6295533 0 0 1 -0.120692,-0.03089 6.8916671,6.6295533 0 0 1 -0.120077,-0.03336 6.8916671,6.6295533 0 0 1 -0.119466,-0.03582 6.8916671,6.6295533 0 0 1 -0.118855,-0.03768 6.8916671,6.6295533 0 0 1 -0.118234,-0.03953 6.8916671,6.6295533 0 0 1 -0.117012,-0.04139 6.8916671,6.6295533 0 0 1 -0.117013,-0.04386 6.8916671,6.6295533 0 0 1 -0.115175,-0.04572 6.8916671,6.6295533 0 0 1 -0.115175,-0.04756 6.8916671,6.6295533 0 0 1 -0.113954,-0.05004 6.8916671,6.6295533 0 0 1 -0.112721,-0.05189 6.8916671,6.6295533 0 0 1 -0.112116,-0.05374 6.8916671,6.6295533 0 0 1 -0.110884,-0.0556 6.8916671,6.6295533 0 0 1 -0.109662,-0.05745 6.8916671,6.6295533 0 0 1 -0.108441,-0.05931 6.8916671,6.6295533 0 0 1 -0.107826,-0.06178 6.8916671,6.6295533 0 0 1 -0.105986,-0.06301 6.8916671,6.6295533 0 0 1 -0.105371,-0.06486 6.8916671,6.6295533 0 0 1 -0.10415,-0.06734 6.8916671,6.6295533 0 0 1 -0.102311,-0.06857 6.8916671,6.6295533 0 0 1 -0.101695,-0.07042 6.8916671,6.6295533 0 0 1 -0.09986,-0.07228 6.8916671,6.6295533 0 0 1 -0.09864,-0.07413 6.8916671,6.6295533 0 0 1 -0.09741,-0.07536 6.8916671,6.6295533 0 0 1 -0.09558,-0.07783 6.8916671,6.6295533 0 0 1 -0.09434,-0.07846 6.8916671,6.6295533 0 0 1 -0.09251,-0.08093 6.8916671,6.6295533 0 0 1 -0.09129,-0.08216 6.8916671,6.6295533 0 0 1 -0.09005,-0.08401 6.8916671,6.6295533 0 0 1 -0.08761,-0.08524 6.8916671,6.6295533 0 0 1 -0.08637,-0.0871 6.8916671,6.6295533 0 0 1 -0.08515,-0.08834 6.8916671,6.6295533 0 0 1 -0.08332,-0.09019 6.8916671,6.6295533 0 0 1 -0.08087,-0.09142 6.8916671,6.6295533 0 0 1 -0.07964,-0.09267 6.8916671,6.6295533 0 0 1 -0.07842,-0.0939 6.8916671,6.6295533 0 0 1 -0.07597,-0.09575 6.8916671,6.6295533 0 0 1 -0.07414,-0.09637 6.8916671,6.6295533 0 0 1 -0.0723,-0.09823 6.8916671,6.6295533 0 0 1 -0.07106,-0.09946 6.8916671,6.6295533 0 0 1 -0.06862,-0.10008 6.8916671,6.6295533 0 0 1 -0.06677,-0.101921 6.8916671,6.6295533 0 0 1 -0.06494,-0.102542 6.8916671,6.6295533 0 0 1 -0.0631,-0.104395 6.8916671,6.6295533 0 0 1 -0.06065,-0.105017 6.8916671,6.6295533 0 0 1 -0.05882,-0.106248 6.8916671,6.6295533 0 0 1 -0.05698,-0.106869 6.8916671,6.6295533 0 0 1 -0.05514,-0.108101 6.8916671,6.6295533 0 0 1 -0.05268,-0.108722 6.8916671,6.6295533 0 0 1 -0.05084,-0.109955 6.8916671,6.6295533 0 0 1 -0.04901,-0.111197 6.8916671,6.6295533 0 0 1 -0.04656,-0.111196 6.8916671,6.6295533 0 0 1 -0.04472,-0.112429 6.8916671,6.6295533 0 0 1 -0.04228,-0.113659 6.8916671,6.6295533 0 0 1 -0.04043,-0.113672 6.8916671,6.6295533 0 0 1 -0.03798,-0.114281 6.8916671,6.6295533 0 0 1 -0.03553,-0.115524 6.8916671,6.6295533 0 0 1 -0.03369,-0.115513 6.8916671,6.6295533 0 0 1 -0.03186,-0.116756 6.8916671,6.6295533 0 0 1 -0.0294,-0.116755 6.8916671,6.6295533 0 0 1 -0.02696,-0.117378 6.8916671,6.6295533 0 0 1 -0.02512,-0.117986 6.8916671,6.6295533 0 0 1 -0.02266,-0.118608 6.8916671,6.6295533 0 0 1 -0.02022,-0.11861 6.8916671,6.6295533 0 0 1 -0.01838,-0.11923 6.8916671,6.6295533 0 0 1 -0.01593,-0.119218 6.8916671,6.6295533 0 0 1 -0.01408,-0.119218 6.8916671,6.6295533 0 0 1 -0.01103,-0.119843 6.8916671,6.6295533 0 0 1 -0.0092,-0.119845 6.8916671,6.6295533 0 0 1 -0.0074,-0.12046 6.8916671,6.6295533 0 0 1 -0.0043,-0.119841 6.8916671,6.6295533 0 0 1 -0.0025,-0.12046 6.8916671,6.6295533 0 0 1 -6.11e-4,-0.06734 6.8916671,6.6295533 0 0 1 0.0012,-0.12046 6.8916671,6.6295533 0 0 1 0.0037,-0.119844 6.8916671,6.6295533 0 0 1 0.0055,-0.120462 6.8916671,6.6295533 0 0 1 0.0079,-0.119839 6.8916671,6.6295533 0 0 1 0.0098,-0.119844 6.8916671,6.6295533 0 0 1 0.01287,-0.119844 6.8916671,6.6295533 0 0 1 0.0147,-0.11984 6.8916671,6.6295533 0 0 1 0.01716,-0.11923 6.8916671,6.6295533 0 0 1 0.01899,-0.118609 6.8916671,6.6295533 0 0 1 0.02145,-0.118608 6.8916671,6.6295533 0 0 1 0.02389,-0.117987 6.8916671,6.6295533 0 0 1 0.02572,-0.117987 6.8916671,6.6295533 0 0 1 0.02819,-0.116756 6.8916671,6.6295533 0 0 1 0.03002,-0.116755 6.8916671,6.6295533 0 0 1 0.03246,-0.116135 6.8916671,6.6295533 0 0 1 0.03493,-0.115512 6.8916671,6.6295533 0 0 1 0.03676,-0.115524 6.8916671,6.6295533 0 0 1 0.03921,-0.114281 6.8916671,6.6295533 0 0 1 0.04104,-0.113051 6.8916671,6.6295533 0 0 1 0.04349,-0.113049 6.8916671,6.6295533 0 0 1 0.04534,-0.112429 6.8916671,6.6295533 0 0 1 0.04779,-0.111197 6.8916671,6.6295533 0 0 1 0.04962,-0.109966 6.8916671,6.6295533 0 0 1 0.05147,-0.109953 6.8916671,6.6295533 0 0 1 0.0539,-0.108101 6.8916671,6.6295533 0 0 1 0.05576,-0.108101 6.8916671,6.6295533 0 0 1 0.05819,-0.106248 6.8916671,6.6295533 0 0 1 0.05942,-0.105638 6.8916671,6.6295533 0 0 1 0.06188,-0.105017 6.8916671,6.6295533 0 0 1 0.06372,-0.103164 6.8916671,6.6295533 0 0 1 0.06616,-0.102542 6.8916671,6.6295533 0 0 1 0.06739,-0.101311 6.8916671,6.6295533 0 0 1 0.06983,-0.10008 6.8916671,6.6295533 0 0 1 0.07106,-0.09821 6.8916671,6.6295533 0 0 1 0.07352,-0.09761 6.8916671,6.6295533 0 0 1 0.07536,-0.09637 6.8916671,6.6295533 0 0 1 0.07657,-0.09451 6.8916671,6.6295533 0 0 1 0.07903,-0.0939 6.8916671,6.6295533 0 0 1 0.08026,-0.09205 6.8916671,6.6295533 0 0 1 0.0821,-0.0908 6.8916671,6.6295533 0 0 1 0.08394,-0.08895 6.8916671,6.6295533 0 0 1 0.08516,-0.08772 6.8916671,6.6295533 0 0 1 0.08761,-0.08649 6.8916671,6.6295533 0 0 1 0.08883,-0.08463 6.8916671,6.6295533 0 0 1 0.09005,-0.0834 6.8916671,6.6295533 0 0 1 0.09189,-0.08154 6.8916671,6.6295533 0 0 1 0.09374,-0.07969 6.8916671,6.6295533 0 0 1 0.09496,-0.07845 6.8916671,6.6295533 0 0 1 0.09618,-0.0766 6.8916671,6.6295533 0 0 1 0.09802,-0.07475 6.8916671,6.6295533 0 0 1 0.09924,-0.07351 6.8916671,6.6295533 0 0 1 0.100476,-0.07165 6.8916671,6.6295533 0 0 1 0.101694,-0.06919 6.8916671,6.6295533 0 0 1 0.103534,-0.06795 6.8916671,6.6295533 0 0 1 0.104149,-0.06611 6.8916671,6.6295533 0 0 1 0.105987,-0.06486 6.8916671,6.6295533 0 0 1 0.106604,-0.06239 6.8916671,6.6295533 0 0 1 0.108442,-0.06053 6.8916671,6.6295533 0 0 1 0.109057,-0.05806 6.8916671,6.6295533 0 0 1 0.110278,-0.05683 6.8916671,6.6295533 0 0 1 0.1115,-0.05498 6.8916671,6.6295533 0 0 1 0.112117,-0.05312 6.8916671,6.6295533 0 0 1 0.113338,-0.05066 6.8916671,6.6295533 0 0 1 0.114557,-0.0488 6.8916671,6.6295533 0 0 1 0.115176,-0.04694 6.8916671,6.6295533 0 0 1 0.115791,-0.04509 6.8916671,6.6295533 0 0 1 0.117012,-0.04263 6.8916671,6.6295533 0 0 1 0.11763,-0.04078 6.8916671,6.6295533 0 0 1 0.118234,-0.03893 6.8916671,6.6295533 0 0 1 0.119467,-0.03645 6.8916671,6.6295533 0 0 1 0.119466,-0.0346 6.8916671,6.6295533 0 0 1 0.120688,-0.03213 6.8916671,6.6295533 0 0 1 0.120692,-0.03089 6.8916671,6.6295533 0 0 1 0.121915,-0.02779 6.8916671,6.6295533 0 0 1 0.121916,-0.02656 6.8916671,6.6295533 0 0 1 0.122531,-0.02348 6.8916671,6.6295533 0 0 1 0.123141,-0.02224 6.8916671,6.6295533 0 0 1 0.12314,-0.01977 6.8916671,6.6295533 0 0 1 0.123756,-0.0173 6.8916671,6.6295533 0 0 1 0.124365,-0.01544 6.8916671,6.6295533 0 0 1 0.123754,-0.01297 6.8916671,6.6295533 0 0 1 0.12498,-0.01112 6.8916671,6.6295533 0 0 1 0.124365,-0.0086 6.8916671,6.6295533 0 0 1 0.124982,-0.0068 6.8916671,6.6295533 0 0 1 0.124979,-0.0049 6.8916671,6.6295533 0 0 1 0.124981,-0.0018 6.8916671,6.6295533 0 0 1 0.06983,-6.17e-4 z"
       style="font-variation-settings:normal;opacity:0.840683;vector-effect:none;fill:#1c2833;fill-opacity:1;fill-rule:evenodd;stroke:#1c2833;stroke-width:0.306708;stroke-linecap:butt;stroke-linejoin:miter;stroke-miterlimit:4;stroke-dasharray:none;stroke-dashoffset:0;stroke-opacity:0.95999998;stop-color:#000000;stop-opacity:1;filter:url(#filter3521)"
       id="path3302" />
    <path
       id="path3205"
       d="M 29.518774,83.612801 C 15.96867,83.272112 15.96867,83.272112 15.96867,83.272112"
       style="fill:#ffffff;stroke:#ffffff;stroke-width:1.41232;stroke-linecap:butt;stroke-linejoin:miter;stroke-miterlimit:4;stroke-dasharray:none;stroke-opacity:1" />
    <path
       style="fill:#ffffff;stroke:#ffffff;stroke-width:1.40269;stroke-linecap:butt;stroke-linejoin:miter;stroke-miterlimit:4;stroke-dasharray:none;stroke-opacity:1"
       d="M 29.303569,79.716614 C 15.937504,79.375925 15.937504,79.375925 15.937504,79.375925"
       id="path3205-3" />
    <path
       style="fill:#ffffff;stroke:#ffffff;stroke-width:1.4225;stroke-linecap:butt;stroke-linejoin:miter;stroke-miterlimit:4;stroke-dasharray:none;stroke-opacity:1"
       d="M 89.718644,83.958602 C 76.372974,83.607691 76.372974,83.607691 76.372974,83.607691"
       id="path3205-1" />
    <path
       style="fill:#ffffff;stroke:#ffffff;stroke-width:1.4225;stroke-linecap:butt;stroke-linejoin:miter;stroke-miterlimit:4;stroke-dasharray:none;stroke-opacity:1"
       d="M 89.815455,80.252601 C 76.46979,79.901688 76.46979,79.901688 76.46979,79.901688"
       id="path3205-4" />
    <rect
       ry="1.3450307"
       y="89.92186"
       x="21.104248"
       height="9.3623247"
       width="3.5879669"
       id="rect3249"
       style="font-variation-settings:normal;opacity:0.907104;vector-effect:none;fill:#1c2833;fill-opacity:1;fill-rule:evenodd;stroke:#142833;stroke-width:0.26739;stroke-linecap:butt;stroke-linejoin:miter;stroke-miterlimit:4;stroke-dasharray:none;stroke-dashoffset:0;stroke-opacity:0.95999998;stop-color:#000000;stop-opacity:1" />
    <rect
       style="font-variation-settings:normal;opacity:0.907104;vector-effect:none;fill:#1c2833;fill-opacity:1;fill-rule:evenodd;stroke:#142833;stroke-width:0.306708;stroke-linecap:butt;stroke-linejoin:miter;stroke-miterlimit:4;stroke-dasharray:none;stroke-dashoffset:0;stroke-opacity:0.95999998;stop-color:#000000;stop-opacity:1"
       id="rect3249-7"
       width="3.5488126"
       height="12.453911"
       x="30.287239"
       y="89.941589"
       ry="1.7891808" />
    <rect
       transform="scale(-1,1)"
       style="font-variation-settings:normal;opacity:0.907104;vector-effect:none;fill:#1c2833;fill-opacity:1;fill-rule:evenodd;stroke:#142833;stroke-width:0.26739;stroke-linecap:butt;stroke-linejoin:miter;stroke-miterlimit:4;stroke-dasharray:none;stroke-dashoffset:0;stroke-opacity:0.95999998;stop-color:#000000;stop-opacity:1"
       id="rect3249-1"
       width="3.5879669"
       height="9.3623247"
       x="-83.878242"
       y="90.713837"
       ry="1.3450307" />
    <rect
       transform="scale(-1,1)"
       ry="1.7891808"
       y="90.204414"
       x="-74.695236"
       height="12.453911"
       width="3.5488126"
       id="rect3249-7-4"
       style="font-variation-settings:normal;opacity:0.907104;vector-effect:none;fill:#1c2833;fill-opacity:1;fill-rule:evenodd;stroke:#142833;stroke-width:0.306708;stroke-linecap:butt;stroke-linejoin:miter;stroke-miterlimit:4;stroke-dasharray:none;stroke-dashoffset:0;stroke-opacity:0.95999998;stop-color:#000000;stop-opacity:1" />
  </g>
</svg>
