<?xml version="1.0" encoding="UTF-8" standalone="no"?>
<svg
   xmlns:dc="http://purl.org/dc/elements/1.1/"
   xmlns:cc="http://creativecommons.org/ns#"
   xmlns:rdf="http://www.w3.org/1999/02/22-rdf-syntax-ns#"
   xmlns:svg="http://www.w3.org/2000/svg"
   xmlns="http://www.w3.org/2000/svg"
   xmlns:sodipodi="http://sodipodi.sourceforge.net/DTD/sodipodi-0.dtd"
   xmlns:inkscape="http://www.inkscape.org/namespaces/inkscape"
   sodipodi:docname="instrucciones.svg"
   inkscape:version="1.0 (4035a4fb49, 2020-05-01)"
   id="svg8"
   version="1.1"
   viewBox="0 0 185.20833 185.20834"
   height="700"
   width="700">
  <defs
     id="defs2" />
  <sodipodi:namedview
     inkscape:pagecheckerboard="false"
     inkscape:window-maximized="0"
     inkscape:window-y="0"
     inkscape:window-x="78"
     inkscape:window-height="728"
     inkscape:window-width="1260"
     units="px"
     showgrid="false"
     inkscape:document-rotation="0"
     inkscape:current-layer="layer1"
     inkscape:document-units="mm"
     inkscape:cy="285.58327"
     inkscape:cx="289.59073"
     inkscape:zoom="0.70710678"
     inkscape:pageshadow="2"
     inkscape:pageopacity="0.90980392"
     borderopacity="1.0"
     bordercolor="#666666"
     pagecolor="#1fa3fa"
     id="base" />
  <metadata
     id="metadata5">
    <rdf:RDF>
      <cc:Work
         rdf:about="">
        <dc:format>image/svg+xml</dc:format>
        <dc:type
           rdf:resource="http://purl.org/dc/dcmitype/StillImage" />
        <dc:title></dc:title>
      </cc:Work>
    </rdf:RDF>
  </metadata>
  <g
     id="layer1"
     inkscape:groupmode="layer"
     inkscape:label="Capa 1">
    <path
       d="m 23.67505,56.41088 c 9.673725,0.393202 18.811063,-2.206506 27.634202,-4.497935 6.579874,-1.708835 12.987155,-3.245435 19.318119,-3.249713 v 0 c 0.654927,-4.5e-4 1.309284,0.01555 1.962681,0.04941 0.577667,0.02993 1.154794,0.07385 1.731478,0.132813"
       style="font-variation-settings:normal;opacity:0.915923;vector-effect:none;fill:#00aa00;fill-opacity:1;fill-rule:evenodd;stroke:#ffffff;stroke-width:7.3;stroke-linecap:butt;stroke-linejoin:miter;stroke-miterlimit:4;stroke-dasharray:none;stroke-dashoffset:0;stroke-opacity:1;stop-color:#000000;stop-opacity:1"
       id="path859-5" />
    <path
       id="path859-5-4"
       style="font-variation-settings:normal;opacity:0.915923;vector-effect:none;fill:#0000ff;fill-opacity:1;fill-rule:evenodd;stroke:#ffffff;stroke-width:7.3;stroke-linecap:butt;stroke-linejoin:miter;stroke-miterlimit:4;stroke-dasharray:none;stroke-dashoffset:0;stroke-opacity:1;stop-color:#000000;stop-opacity:1"
       d="m 23.675086,74.211231 c 9.673715,0.393202 18.811053,-2.206506 27.634192,-4.497935 6.579874,-1.708835 12.987155,-3.245435 19.318119,-3.249713 v 0 c 0.654927,-5.29e-4 1.309284,0.01556 1.962681,0.04941 0.577667,0.02993 1.154794,0.07386 1.731478,0.132813" />
    <path
       id="path859-5-3"
       style="font-variation-settings:normal;opacity:0.915923;vector-effect:none;fill:#00aa00;fill-opacity:1;fill-rule:evenodd;stroke:#ffffff;stroke-width:7.3;stroke-linecap:butt;stroke-linejoin:miter;stroke-miterlimit:4;stroke-dasharray:none;stroke-dashoffset:0;stroke-opacity:1;stop-color:#000000;stop-opacity:1"
       d="m 23.675086,92.011582 c 9.673715,0.393202 18.811053,-2.206506 27.634192,-4.497935 6.579874,-1.708835 12.987155,-3.245435 19.318119,-3.249713 v 0 c 0.654927,-5.29e-4 1.309284,0.01556 1.962681,0.04941 0.577667,0.02993 1.154794,0.07386 1.731478,0.132813" />
    <path
       id="path859-5-1"
       style="font-variation-settings:normal;opacity:0.915923;vector-effect:none;fill:#00aa00;fill-opacity:1;fill-rule:evenodd;stroke:#ffffff;stroke-width:7.3;stroke-linecap:butt;stroke-linejoin:miter;stroke-miterlimit:4;stroke-dasharray:none;stroke-dashoffset:0;stroke-opacity:1;stop-color:#000000;stop-opacity:1"
       d="m 23.675184,109.81197 c 9.673715,0.3932 18.811063,-2.20652 27.634202,-4.49797 6.579874,-1.70884 12.987155,-3.24545 19.318119,-3.24973 v 0 c 0.654927,-5.3e-4 1.309284,0.0156 1.962681,0.0494 0.577667,0.0299 1.154794,0.0739 1.731478,0.13282" />
    <path
       id="path859-5-9"
       style="font-variation-settings:normal;opacity:0.915923;vector-effect:none;fill:#00aa00;fill-opacity:1;fill-rule:evenodd;stroke:#ffffff;stroke-width:7.30001;stroke-linecap:butt;stroke-linejoin:miter;stroke-miterlimit:4;stroke-dasharray:none;stroke-dashoffset:0;stroke-opacity:1;stop-color:#000000;stop-opacity:1"
       d="m 163.53064,56.398129 c -9.67377,0.393203 -18.81115,-2.206505 -27.63434,-4.497935 -6.57991,-1.708832 -12.98722,-3.245434 -19.31823,-3.249712 v 0 c -0.65493,-4.49e-4 -1.30929,0.01555 -1.96269,0.04941 -0.57767,0.02993 -1.1548,0.07385 -1.73149,0.132813" />
    <path
       d="m 163.5306,74.198414 c -9.67375,0.3932 -18.81113,-2.206506 -27.63432,-4.497936 -6.57991,-1.708835 -12.98724,-3.245434 -19.31824,-3.249713 v 0 c -0.65493,-5.29e-4 -1.30929,0.01556 -1.96269,0.04941 -0.57767,0.02993 -1.1548,0.07386 -1.73149,0.132813"
       style="font-variation-settings:normal;opacity:0.915923;vector-effect:none;fill:#0000ff;fill-opacity:1;fill-rule:evenodd;stroke:#ffffff;stroke-width:7.30001;stroke-linecap:butt;stroke-linejoin:miter;stroke-miterlimit:4;stroke-dasharray:none;stroke-dashoffset:0;stroke-opacity:1;stop-color:#000000;stop-opacity:1"
       id="path859-5-4-7" />
    <path
       d="m 163.53061,91.998687 c -9.67375,0.393203 -18.81113,-2.206505 -27.63432,-4.497935 -6.57991,-1.708835 -12.98724,-3.245434 -19.31824,-3.249713 v 0 c -0.65493,-5.29e-4 -1.30929,0.01556 -1.96269,0.04941 -0.57767,0.02993 -1.1548,0.07386 -1.73149,0.132815"
       style="font-variation-settings:normal;opacity:0.915923;vector-effect:none;fill:#00aa00;fill-opacity:1;fill-rule:evenodd;stroke:#ffffff;stroke-width:7.30001;stroke-linecap:butt;stroke-linejoin:miter;stroke-miterlimit:4;stroke-dasharray:none;stroke-dashoffset:0;stroke-opacity:1;stop-color:#000000;stop-opacity:1"
       id="path859-5-3-8" />
    <path
       d="m 163.53051,109.79902 c -9.67375,0.3932 -18.81114,-2.20652 -27.63434,-4.49797 -6.5799,-1.70884 -12.98722,-3.24545 -19.31823,-3.24973 v 0 c -0.65493,-5.3e-4 -1.30929,0.0156 -1.96269,0.0494 -0.57767,0.0299 -1.1548,0.0739 -1.73149,0.13282"
       style="font-variation-settings:normal;opacity:0.915923;vector-effect:none;fill:#00aa00;fill-opacity:1;fill-rule:evenodd;stroke:#ffffff;stroke-width:7.30001;stroke-linecap:butt;stroke-linejoin:miter;stroke-miterlimit:4;stroke-dasharray:none;stroke-dashoffset:0;stroke-opacity:1;stop-color:#000000;stop-opacity:1"
       id="path859-5-1-6" />
    <path
       id="path1041-8"
       style="color:#000000;font-style:normal;font-variant:normal;font-weight:normal;font-stretch:normal;font-size:medium;line-height:normal;font-family:sans-serif;font-variant-ligatures:normal;font-variant-position:normal;font-variant-caps:normal;font-variant-numeric:normal;font-variant-alternates:normal;font-variant-east-asian:normal;font-feature-settings:normal;font-variation-settings:normal;text-indent:0;text-align:start;text-decoration:none;text-decoration-line:none;text-decoration-style:solid;text-decoration-color:#000000;letter-spacing:normal;word-spacing:normal;text-transform:none;writing-mode:lr-tb;direction:ltr;text-orientation:mixed;dominant-baseline:auto;baseline-shift:baseline;text-anchor:start;white-space:normal;shape-padding:0;shape-margin:0;inline-size:0;clip-rule:nonzero;display:inline;overflow:visible;visibility:visible;opacity:0.907104;isolation:auto;mix-blend-mode:normal;color-interpolation:sRGB;color-interpolation-filters:linearRGB;solid-color:#000000;solid-opacity:1;vector-effect:none;fill:none;fill-opacity:0.957377;fill-rule:evenodd;stroke:#ffffff;stroke-width:0;stroke-linecap:butt;stroke-linejoin:miter;stroke-miterlimit:4;stroke-dasharray:none;stroke-dashoffset:0;stroke-opacity:1;color-rendering:auto;image-rendering:auto;shape-rendering:auto;text-rendering:auto;enable-background:accumulate;stop-color:#000000;stop-opacity:1"
       d="m 68.511011,48.505653 c -6.774999,0.0048 -13.225663,1.708704 -19.526713,3.455523 -5.034301,1.395649 -9.934012,2.808041 -14.821396,3.651355 v 0.0019 c -7.902481,1.423447 -13.906222,1.98204 -18.422196,2.764523 -3.218749,0.557711 -5.671052,1.231359 -7.526638,2.400916 v 90.03549 l 3.325448,1.11428 c 14.873002,4.98029 28.27342,0.69955 39.810638,-2.48761 6.212338,-1.71615 11.948028,-3.12713 17.215202,-3.13068 0.542964,-5.1e-4 1.084565,0.0136 1.622092,0.0433 3.624246,0.19979 7.046513,1.07074 10.597945,3.0751 l 6.963514,3.9303 V 54.29835 L 85.24227,52.867387 c -4.842164,-2.766359 -9.803424,-4.037711 -14.619534,-4.304109 -0.706595,-0.03908 -1.410653,-0.05813 -2.111725,-0.05762 z m 48.067059,0.144829 c -0.70108,-4.95e-4 -1.40514,0.01853 -2.11172,0.05763 -4.8161,0.266396 -9.77739,1.537745 -14.61956,4.304105 l -2.506625,1.430965 v 99.061808 l 6.963515,-3.93031 c 3.55145,-2.00434 6.97371,-2.8753 10.59795,-3.07509 0.53753,-0.0297 1.07914,-0.0439 1.62211,-0.0433 5.26716,0.005 11.00284,1.41454 17.21517,3.13069 11.53723,3.18715 24.93764,7.46787 39.81066,2.48761 l 3.32543,-1.11427 V 60.924839 c -1.85557,-1.169562 -4.30788,-1.843204 -7.52663,-2.400918 -4.51598,-0.782483 -10.51972,-1.341075 -18.42219,-2.764521 v -0.0019 c -4.88737,-0.84328 -9.7871,-2.255673 -14.8214,-3.651321 -6.30106,-1.746824 -12.75171,-3.45059 -19.52671,-3.455526 z" />
    <path
       d="m 69.675588,25.92426 c -6.74503,0.0055 -13.167156,1.888257 -19.440337,3.818637 -5.012034,1.542304 -9.890072,3.103114 -14.755839,4.035044 v 0.0023 c -7.867528,1.573024 -13.844713,2.190317 -18.340713,3.055023 -3.20451,0.616317 -5.645968,1.360752 -7.4933448,2.653209 v 99.496477 l 3.3107368,1.23136 c 14.807218,5.50362 28.148364,0.77307 39.634551,-2.749 6.184865,-1.89649 11.895176,-3.45576 17.139051,-3.45966 0.540573,-5.8e-4 1.07978,0.0151 1.614919,0.0479 3.608215,0.22078 7.015346,1.18326 10.551078,3.39824 l 6.932703,4.34331 V 32.325665 l -2.495539,-1.581332 c -4.820746,-3.057054 -9.760072,-4.462002 -14.554882,-4.756392 -0.703457,-0.0432 -1.404401,-0.06423 -2.102384,-0.06368 z m 47.854452,0.160049 c -0.69799,-5.47e-4 -1.39892,0.02049 -2.10238,0.06368 -4.79481,0.29439 -9.73414,1.699335 -14.55487,4.75639 l -2.495561,1.581331 v 109.47138 l 6.932711,-4.3433 c 3.53573,-2.21497 6.94285,-3.17746 10.55107,-3.39823 0.53516,-0.0328 1.07436,-0.0485 1.61493,-0.0479 5.24386,0.004 10.95418,1.56317 17.13905,3.45965 11.48618,3.52208 24.82732,8.25263 39.63454,2.74901 l 3.31074,-1.23135 V 39.648476 c -1.84737,-1.292459 -4.28883,-2.036891 -7.49334,-2.653209 -4.49599,-0.864708 -10.47319,-1.481998 -18.34071,-3.055023 v -0.0023 c -4.86576,-0.931893 -9.74381,-2.492704 -14.75584,-4.035007 -6.27318,-1.930383 -12.69531,-3.813185 -19.44034,-3.818638 z M 69.60712,25.743648 c -6.76433,0.005 -13.204836,1.731484 -19.495969,3.501594 -5.026374,1.414254 -9.918371,2.845477 -14.798061,3.700034 v 0.0021 c -7.890039,1.442424 -13.884328,2.008466 -18.393193,2.80138 -3.21368,0.565147 -5.662123,1.247775 -7.5147864,2.432925 v 91.235773 l 3.3202104,1.12913 c 14.849588,5.04668 28.228908,0.70887 39.747962,-2.52078 6.202563,-1.73902 11.929215,-3.16883 17.188097,-3.17241 0.542116,-5.5e-4 1.082866,0.0138 1.619539,0.0439 3.618539,0.20244 7.035419,1.08502 10.581266,3.11609 l 6.952547,3.98271 V 31.613575 l -2.502689,-1.450041 c -4.834541,-2.803242 -9.787996,-4.091544 -14.596525,-4.361492 -0.705472,-0.03961 -1.408422,-0.0589 -2.108398,-0.05839 z m 47.99139,0.146761 c -0.69999,-5.1e-4 -1.40293,0.01878 -2.1084,0.05839 -4.80853,0.269948 -9.76199,1.558248 -14.59653,4.36149 l -2.502689,1.450041 V 132.14284 l 6.952549,-3.9827 c 3.54585,-2.03108 6.96272,-2.91365 10.58126,-3.1161 0.53669,-0.0301 1.07744,-0.0444 1.61955,-0.0439 5.25887,0.004 10.98553,1.43339 17.18809,3.17242 11.51905,3.22965 24.89837,7.56745 39.74796,2.52077 l 3.32021,-1.12913 V 38.328409 c -1.85266,-1.185153 -4.3011,-1.867778 -7.51478,-2.432926 -4.50886,-0.792916 -10.50316,-1.358955 -18.39319,-2.801379 v -0.0021 c -4.87969,-0.854557 -9.77169,-2.285781 -14.79807,-3.700034 -6.29113,-1.770113 -12.73163,-3.496595 -19.49596,-3.501595 z"
       style="color:#000000;font-style:normal;font-variant:normal;font-weight:normal;font-stretch:normal;font-size:medium;line-height:normal;font-family:sans-serif;font-variant-ligatures:normal;font-variant-position:normal;font-variant-caps:normal;font-variant-numeric:normal;font-variant-alternates:normal;font-variant-east-asian:normal;font-feature-settings:normal;font-variation-settings:normal;text-indent:0;text-align:start;text-decoration:none;text-decoration-line:none;text-decoration-style:solid;text-decoration-color:#000000;letter-spacing:normal;word-spacing:normal;text-transform:none;writing-mode:lr-tb;direction:ltr;text-orientation:mixed;dominant-baseline:auto;baseline-shift:baseline;text-anchor:start;white-space:normal;shape-padding:0;shape-margin:0;inline-size:0;clip-rule:nonzero;display:inline;overflow:visible;visibility:visible;opacity:0.907104;isolation:auto;mix-blend-mode:normal;color-interpolation:sRGB;color-interpolation-filters:linearRGB;solid-color:#000000;solid-opacity:1;vector-effect:none;fill:none;fill-opacity:0.957377;fill-rule:evenodd;stroke:#ffffff;stroke-width:10.2864;stroke-linecap:butt;stroke-linejoin:miter;stroke-miterlimit:4;stroke-dasharray:none;stroke-dashoffset:0;stroke-opacity:1;color-rendering:auto;image-rendering:auto;shape-rendering:auto;text-rendering:auto;enable-background:accumulate;stop-color:#000000;stop-opacity:1"
       id="path1041-2" />
  </g>
</svg>
